<svg version="1.0" xmlns="http://www.w3.org/2000/svg" width="866.667" height="866.667" viewBox="0 0 650 650"><path d="M.6 6.8c.3 1.5 1.9 9 3.5 16.7 1.7 7.7 3.2 14.9 3.4 16 .5 2.9 2.1 10.9 3.9 19 2.1 9.6 9.4 44.4 10 47.8.2 1.5.7 3.5 1 4.5.3.9.7 2.8 1 4.2.2 1.4 1.6 7.9 3 14.5s2.7 13.1 3 14.5c.5 2.4 1.7 8.6 3.8 18 .5 2.5 1.1 5.6 1.4 7 .2 1.4.8 4.3 1.4 6.5.5 2.2 1.7 7.4 2.5 11.5s3.8 18.2 6.5 31.3c2.7 13.1 5.2 24.8 5.4 26 .2 1.2 1.4 6.5 2.5 11.7 1.1 5.2 2.2 10.6 2.5 12 .2 1.4 1 4.7 1.6 7.5.6 2.7 1.3 5.9 1.6 7 .2 1.1.8 4 1.4 6.5.5 2.5 1.2 5.7 1.5 7.2 1.2 6.5 1.6 8.5 2.2 11.3.4 1.6.8 3.4.9 4 .2.5.6 2.3.9 4 .3 1.6 1.9 9.5 3.6 17.5 1.7 8 3.3 15.6 3.5 17 .3 1.4 1.1 5.3 1.9 8.6.8 3.4 1.6 7.3 1.9 8.5.2 1.3 1.2 6.2 2.1 10.9 1 4.7 1.8 8.9 1.9 9.5 0 .5 2.8 3.7 6.1 7.1 3.3 3.3 10.3 10.6 15.6 16 5.2 5.4 10.3 10.5 11.1 11.2 1.6 1.3 3.6.6 22.5-7.9 4.5-2 9.4-4.1 10.3-4.4.3-.1 2.1-.8 4-1.7 1.9-.9 6.9-3 11-4.8 4.1-1.8 9.3-4 11.5-5 2.2-.9 5.5-2.3 7.3-3.1 2.9-1.3 3.2-1.7 2.8-4.9-.3-1.9-.8-6.2-1.1-9.5-.4-3.3-.8-7.6-1-9.7-.2-2-.7-6.7-1-10.5-.3-3.7-1-10.6-1.6-15.2-.8-6.7-.7-8.6.3-9.2.7-.5 6.7-2.9 13.3-5.5 6.6-2.6 13.6-5.3 15.5-6.1 4-1.7 3.8-1.6 18-7.2 5.8-2.3 10.8-4.1 11-4.1.3 0 .6 3.9.6 8.8.1 4.8.5 13.4.8 19.2.4 5.8.9 15.2 1.2 21 .2 5.8.6 13.9.9 18 .2 4.1.7 12 1 17.5.3 5.5.7 13.6 1 18 .4 7.7 1.2 22.4 2 37 .6 12.6 1.6 29.9 2 37 .3 3.8.7 12.2 1.1 18.5.3 6.3.7 14.4.9 18 .6 10.3 1.6 29.9 1.9 36.9.3 7-.4 5.9 14.3 21.7 5.2 5.6 22.1 24 25.7 27.8 1.5 1.7 7.2 7.8 12.6 13.6 5.4 5.8 12 12.9 14.8 15.9l5 5.5 2.3-2.5c1.3-1.3 6-5.3 10.4-8.9 4.4-3.5 8.5-6.9 9.1-7.5.6-.5 3.2-2.8 5.9-5 4.6-3.9 18-15 31.5-26.4 3.6-3 6.7-5.8 6.8-6.3.2-.4.7-.8 1.2-.8.4 0 2.3-1.3 4.2-2.9 1.8-1.6 4.5-4 6.1-5.2 2.2-2 2.8-3.4 3.2-8.4.3-3.3.8-7.1 1-8.5.3-1.4.8-5 1-8 .3-3 .7-6.9 1-8.5.2-1.7.7-5.9 1-9.5.4-3.6.9-7.3 1-8.2.2-.9.7-4.8 1-8.5.4-3.7.9-7 1-7.3.2-.3.6-3.5 1-7 .3-3.6.8-8.1 1-10 .3-1.9.7-5.3 1-7.5.8-7 1.5-12.9 2-17 .3-2.2.7-6.3 1-9 .2-2.8.5-5 .5-5 .2 0 .6-3.9 1.4-11 .2-2.2.5-4 .6-4 0 0 .3-2 .5-4.5.3-2.5.7-6.5 1.1-9 .3-2.5.8-6.1.9-8 1.1-10.9 2.3-18.9 3-20 .2-.4 8.2-5.5 17.7-11.4s32.6-20.4 51.3-32.1c18.7-11.8 36.5-22.9 39.5-24.7 3-1.8 6-3.6 6.5-4 .6-.5 8.7-5.6 18-11.4 9.4-5.8 17.1-10.7 17.2-10.8.2-.2 11.1-42.1 11.8-45.6l2-8c1-3.6 1.8-7 1.9-7.5.1-.6.5-1.9.9-3 .3-1.1.8-3.1 1.1-4.5.3-1.4 1.8-7.7 3.5-14s3.1-12.2 3.1-13.1c0-1-1.6-1.9-4.7-2.6-4.9-1.2-10-2.4-11.8-2.9-.5-.1-7.5-1.9-15.5-3.9s-15.3-3.8-16.2-4c-1-.3-2.6-.7-3.5-.9-1-.2-11.2-2.7-22.6-5.6l-20.8-5.1-8.2 2.6c-4.5 1.5-8.9 2.9-9.7 3.2-.8.4-1.7.7-2 .7-.8.2-20.4 6.7-22 7.3-.8.3-2.4.8-3.4 1-1.1.2-2.5.8-3.3 1.4-.7.6-1.3.8-1.3.5 0-.4-.9-.2-2 .4-1.9 1-2 .8-2-4 0-2.7.3-4.9.8-4.8.4 0 1.4-.1 2.2-.5 2.3-.9 45.3-14.9 47-15.3.8-.2 5.2-1.6 9.8-3.2 4.5-1.7 8.2-2.8 8.2-2.6 0 .1 1.7-.4 3.7-1.2 2-.9 4.4-1.7 5.2-1.9.9-.2 6.8-2.1 13.1-4.3 6.3-2.1 11.8-4 12.2-4.1.4-.1 1.3-.4 2-.6.7-.3 5.4-1.8 10.3-3.3 27.7-8.8 51.1-16.6 51.8-17.2.4-.4 1.7-4.3 2.8-8.6 1.2-4.3 3-11.3 4-15.4 1.1-4.1 2.2-8.2 2.4-9 .1-.8 1.5-6 2.9-11.5 1.5-5.5 2.8-10.7 3-11.5.2-.8 1.4-5.3 2.6-10 1.2-4.7 2.4-9.6 2.7-10.9.2-1.4.6-2.8.9-3.3.3-.4.7-1.6.9-2.5.2-1 1.3-5.6 2.5-10.3 1.2-4.7 2.4-9.2 2.6-10 1.1-4.7 5.4-21 6.3-23.9.6-1.9.8-3.7.6-4-.9-.9-3.5-1-27.5-1.6-12.9-.4-31.4-.8-41-1.1-25.4-.8-64.4-.8-80 0-23.1 1.1-61.1 2.7-73 3.1-4.7.2-8.5.4-8.5.4 0 .1-5.4.4-12 .6-13.5.5-27.6 1.1-50.5 2-8.5.4-18.7.8-22.6 1-4 .1-7.6.5-8.2.9-.6.3-1.3.2-1.7-.4-.4-.6-1-.8-1.4-.5-.8.4-10.1 1-37.1 2-8 .3-18.5.8-23.5 1-15.1.8-36.8 1.7-40.3 1.7-2.8-.1-3.5.4-5 3.6-.9 2-2 3.8-2.4 4-.5.2-.8 1-.8 1.7s-.9 3-2 5.2c-1.1 2.1-4.9 10.1-8.6 17.8-3.6 7.7-7.8 16.5-9.2 19.5-1.4 3-2.6 5.7-2.7 6 0 .3-1.1 2.4-2.3 4.6-1.1 2.3-1.8 4.4-1.5 4.8.4.3.1.6-.5.6s-1.2.8-1.5 1.7c-.3 1.6-.5 1.6-1.2-.2-.5-1.1-2.4-4.6-4.1-7.8-1.8-3.1-3-5.7-2.6-5.7.4 0 .3-.4-.3-.8-.5-.4-3.2-5-5.9-10.2-2.8-5.2-6.2-11.6-7.8-14.3-1.5-2.6-2.5-4.7-2.2-4.7.3 0-.4-1.3-1.5-2.9-1.2-1.6-2.1-3.1-2.1-3.4 0-.2-4.2-8.3-9.3-17.9l-9.2-17.5-69.7-.1L.1 4.1l.5 2.7z"/></svg>