<?xml version="1.0" standalone="no"?>
<!DOCTYPE svg PUBLIC "-//W3C//DTD SVG 20010904//EN"
 "http://www.w3.org/TR/2001/REC-SVG-20010904/DTD/svg10.dtd">
<svg version="1.0" xmlns="http://www.w3.org/2000/svg"
 width="650.000000pt" height="650.000000pt" viewBox="0 0 650.000000 650.000000"
 preserveAspectRatio="xMidYMid meet">
<metadata>
Created by potrace 1.14, written by Peter Selinger 2001-2017
</metadata>
<g transform="translate(0.000000,650.000000) scale(0.100000,-0.100000)"
fill="#000000" stroke="none">
<path d="M6 6432 c3 -15 19 -90 35 -167 17 -77 32 -149 34 -160 5 -29 21 -109
39 -190 21 -96 94 -444 100 -478 2 -15 7 -35 10 -45 3 -9 7 -28 10 -42 2 -14
16 -79 30 -145 14 -66 27 -131 30 -145 5 -24 17 -86 38 -180 5 -25 11 -56 14
-70 2 -14 8 -43 14 -65 5 -22 17 -74 25 -115 8 -41 38 -182 65 -313 27 -131
52 -248 54 -260 2 -12 14 -65 25 -117 11 -52 22 -106 25 -120 2 -14 10 -47 16
-75 6 -27 13 -59 16 -70 2 -11 8 -40 14 -65 5 -25 12 -57 15 -72 12 -65 16
-85 22 -113 4 -16 8 -34 9 -40 2 -5 6 -23 9 -40 3 -16 19 -95 36 -175 17 -80
33 -156 35 -170 3 -14 11 -53 19 -86 8 -34 16 -73 19 -85 2 -13 12 -62 21
-109 10 -47 18 -89 19 -95 0 -5 28 -37 61 -71 33 -33 103 -106 156 -160 52
-54 103 -105 111 -112 16 -13 36 -6 225 79 45 20 94 41 103 44 3 1 21 8 40 17
19 9 69 30 110 48 41 18 93 40 115 50 22 9 55 23 73 31 29 13 32 17 28 49 -3
19 -8 62 -11 95 -4 33 -8 76 -10 97 -2 20 -7 67 -10 105 -3 37 -10 106 -16
152 -8 67 -7 86 3 92 7 5 67 29 133 55 66 26 136 53 155 61 40 17 38 16 180
72 58 23 108 41 110 41 3 0 6 -39 6 -88 1 -48 5 -134 8 -192 4 -58 9 -152 12
-210 2 -58 6 -139 9 -180 2 -41 7 -120 10 -175 3 -55 7 -136 10 -180 4 -77 12
-224 20 -370 6 -126 16 -299 20 -370 3 -38 7 -122 11 -185 3 -63 7 -144 9
-180 6 -103 16 -299 19 -369 3 -70 -4 -59 143 -217 52 -56 221 -240 257 -278
15 -17 72 -78 126 -136 54 -58 120 -129 148 -159 l50 -55 23 25 c13 13 60 53
104 89 44 35 85 69 91 75 6 5 32 28 59 50 46 39 180 150 315 264 36 30 67 58
68 63 2 4 7 8 12 8 4 0 23 13 42 29 18 16 45 40 61 52 22 20 28 34 32 84 3 33
8 71 10 85 3 14 8 50 10 80 3 30 7 69 10 85 2 17 7 59 10 95 4 36 9 73 10 82
2 9 7 48 10 85 4 37 9 70 10 73 2 3 6 35 10 70 3 36 8 81 10 100 3 19 7 53 10
75 8 70 15 129 20 170 3 22 7 63 10 90 2 28 5 50 5 50 2 0 6 39 14 110 2 22 5
40 6 40 0 0 3 20 5 45 3 25 7 65 11 90 3 25 8 61 9 80 11 109 23 189 30 200 2
4 82 55 177 114 95 59 326 204 513 321 187 118 365 229 395 247 30 18 60 36
65 40 6 5 87 56 180 114 94 58 171 107 172 108 2 2 111 421 118 456 2 8 11 44
20 80 10 36 18 70 19 75 1 6 5 19 9 30 3 11 8 31 11 45 3 14 18 77 35 140 17
63 31 122 31 131 0 10 -16 19 -47 26 -49 12 -100 24 -118 29 -5 1 -75 19 -155
39 -80 20 -153 38 -162 40 -10 3 -26 7 -35 9 -10 2 -112 27 -226 56 l-208 51
-82 -26 c-45 -15 -89 -29 -97 -32 -8 -4 -17 -7 -20 -7 -8 -2 -204 -67 -220
-73 -8 -3 -24 -8 -34 -10 -11 -2 -25 -8 -33 -14 -7 -6 -13 -8 -13 -5 0 4 -9 2
-20 -4 -19 -10 -20 -8 -20 40 0 27 3 49 8 48 4 0 14 1 22 5 23 9 453 149 470
153 8 2 52 16 98 32 45 17 82 28 82 26 0 -1 17 4 37 12 20 9 44 17 52 19 9 2
68 21 131 43 63 21 118 40 122 41 4 1 13 4 20 6 7 3 54 18 103 33 277 88 511
166 518 172 4 4 17 43 28 86 12 43 30 113 40 154 11 41 22 82 24 90 1 8 15 60
29 115 15 55 28 107 30 115 2 8 14 53 26 100 12 47 24 96 27 109 2 14 6 28 9
33 3 4 7 16 9 25 2 10 13 56 25 103 12 47 24 92 26 100 11 47 54 210 63 239 6
19 8 37 6 40 -9 9 -35 10 -275 16 -129 4 -314 8 -410 11 -254 8 -644 8 -800 0
-231 -11 -611 -27 -730 -31 -47 -2 -85 -4 -85 -4 0 -1 -54 -4 -120 -6 -135 -5
-276 -11 -505 -20 -85 -4 -187 -8 -226 -10 -40 -1 -76 -5 -82 -9 -6 -3 -13 -2
-17 4 -4 6 -10 8 -14 5 -8 -4 -101 -10 -371 -20 -80 -3 -185 -8 -235 -10 -151
-8 -368 -17 -403 -17 -28 1 -35 -4 -50 -36 -9 -20 -20 -38 -24 -40 -5 -2 -8
-10 -8 -17 0 -7 -9 -30 -20 -52 -11 -21 -49 -101 -86 -178 -36 -77 -78 -165
-92 -195 -14 -30 -26 -57 -27 -60 0 -3 -11 -24 -23 -46 -11 -23 -18 -44 -15
-48 4 -3 1 -6 -5 -6 -6 0 -12 -8 -15 -17 -3 -16 -5 -16 -12 2 -5 11 -24 46
-41 78 -18 31 -30 57 -26 57 4 0 3 4 -3 8 -5 4 -32 50 -59 102 -28 52 -62 116
-78 143 -15 26 -25 47 -22 47 3 0 -4 13 -15 29 -12 16 -21 31 -21 34 0 2 -42
83 -93 179 l-92 175 -697 1 -697 1 5 -27z"/>
</g>
</svg>
